HIERARCHY
ROOT Hips
{
	OFFSET 0.000000 0.000000 0.000000
	CHANNELS 6 Xposition Yposition Zposition Zrotation Yrotation Xrotation 
	JOINT LHipJoint
	{
		OFFSET 0.000000 0.000000 0.000000
		CHANNELS 3 Zrotation Yrotation Xrotation
		JOINT LeftUpLeg
		{
			OFFSET 1.363060 -1.794630 0.839290
			CHANNELS 3 Zrotation Yrotation Xrotation
			JOINT LeftLeg
			{
				OFFSET 2.448110 -6.726130 0.000000
				CHANNELS 3 Zrotation Yrotation Xrotation
				JOINT LeftFoot
				{
					OFFSET 2.562200 -7.039590 0.000000
					CHANNELS 3 Zrotation Yrotation Xrotation
					JOINT LeftToeBase
					{
						OFFSET 0.157640 -0.433110 2.322550
						CHANNELS 3 Zrotation Yrotation Xrotation
						End Site
						{
							OFFSET 0.000000 0.000000 0.000000
						}
					}
				}
			}
		}
	}
	JOINT RHipJoint
	{
		OFFSET 0.000000 0.000000 0.000000
		CHANNELS 3 Zrotation Yrotation Xrotation
		JOINT RightUpLeg
		{
			OFFSET -1.305520 -1.794630 0.839290
			CHANNELS 3 Zrotation Yrotation Xrotation
			JOINT RightLeg
			{
				OFFSET -2.542530 -6.985550 0.000000
				CHANNELS 3 Zrotation Yrotation Xrotation
				JOINT RightFoot
				{
					OFFSET -2.568260 -7.056230 0.000000
					CHANNELS 3 Zrotation Yrotation Xrotation
					JOINT RightToeBase
					{
						OFFSET -0.164730 -0.452590 2.363150
						CHANNELS 3 Zrotation Yrotation Xrotation
						End Site
						{
							OFFSET 0.000000 0.000000 0.000000
						}
					}
				}
			}
		}
	}
	JOINT LowerBack
	{
		OFFSET 0.000000 0.000000 0.000000
		CHANNELS 3 Zrotation Yrotation Xrotation
		JOINT Spine
		{
			OFFSET 0.028270 2.035590 -0.193380
			CHANNELS 3 Zrotation Yrotation Xrotation
			JOINT Spine1
			{
				OFFSET 0.056720 2.048850 -0.042750
				CHANNELS 3 Zrotation Yrotation Xrotation
				JOINT Neck
				{
					OFFSET 0.000000 0.000000 0.000000
					CHANNELS 3 Zrotation Yrotation Xrotation
					JOINT Neck1
					{
						OFFSET -0.054170 1.746240 0.172020
						CHANNELS 3 Zrotation Yrotation Xrotation
						JOINT Head
						{
							OFFSET 0.104070 1.761360 -0.123970
							CHANNELS 3 Zrotation Yrotation Xrotation
							End Site
							{
								OFFSET 0.000000 0.000000 0.000000
							}
						}
					}
				}
				JOINT LeftShoulder
				{
					OFFSET 0.000000 0.000000 0.000000
					CHANNELS 3 Zrotation Yrotation Xrotation
					JOINT LeftArm
					{
						OFFSET 3.362410 1.200890 -0.311210
						CHANNELS 3 Zrotation Yrotation Xrotation
						JOINT LeftForeArm
						{
							OFFSET 4.983000 -0.000000 -0.000000
							CHANNELS 3 Zrotation Yrotation Xrotation
							JOINT LeftHand
							{
								OFFSET 3.483560 -0.000000 -0.000000
								CHANNELS 3 Zrotation Yrotation Xrotation
								JOINT LeftFingerBase
								{
									OFFSET 0.000000 0.000000 0.000000
									CHANNELS 3 Zrotation Yrotation Xrotation
									JOINT LeftHandIndex1
									{
										OFFSET 0.715260 -0.000000 -0.000000
										CHANNELS 3 Zrotation Yrotation Xrotation
										End Site
										{
											OFFSET 0.000000 0.000000 0.000000
										}
									}
								}
								JOINT LThumb
								{
									OFFSET 0.000000 0.000000 0.000000
									CHANNELS 3 Zrotation Yrotation Xrotation
									End Site
									{
										OFFSET 0.000000 0.000000 0.000000
									}
								}
							}
						}
					}
				}
				JOINT RightShoulder
				{
					OFFSET 0.000000 0.000000 0.000000
					CHANNELS 3 Zrotation Yrotation Xrotation
					JOINT RightArm
					{
						OFFSET -3.136600 1.374050 -0.404650
						CHANNELS 3 Zrotation Yrotation Xrotation
						JOINT RightForeArm
						{
							OFFSET -5.241900 -0.000000 -0.000000
							CHANNELS 3 Zrotation Yrotation Xrotation
							JOINT RightHand
							{
								OFFSET -3.444170 -0.000000 -0.000000
								CHANNELS 3 Zrotation Yrotation Xrotation
								JOINT RightFingerBase
								{
									OFFSET 0.000000 0.000000 0.000000
									CHANNELS 3 Zrotation Yrotation Xrotation
									JOINT RightHandIndex1
									{
										OFFSET -0.622530 -0.000000 -0.000000
										CHANNELS 3 Zrotation Yrotation Xrotation
										End Site
										{
											OFFSET 0.000000 0.000000 0.000000
										}
									}
								}
								JOINT RThumb
								{
									OFFSET 0.000000 0.000000 0.000000
									CHANNELS 3 Zrotation Yrotation Xrotation
									End Site
									{
										OFFSET 0.000000 0.000000 0.000000
									}
								}
							}
						}
					}
				}
			}
		}
	}
}
MOTION
Frames: 10
Frame Time: 0.008333
22.835586 14.654414 -21.504354 4.093161 -5.868227 15.168049 -3.944824 -20.349062 -12.343645 -4.113703 17.740405 20.514667 -15.944606 3.141017 23.476453 -18.028289 38.574829 33.801670 73.630427 -43.159883 -64.010088 -7.185585 5.089747 -9.407072 28.682593 2.319696 -40.275634 -11.104850 -23.974551 66.789994 -17.127052 9.763629 -22.026906 8.987159 -3.764305 -10.418427 11.024837 3.701527 25.471483 -2.523577 0.771908 -8.618313 -9.036050 1.590079 6.163797 -5.908605 2.167244 -19.007973 -5.461921 2.174415 7.233588 12.928097 -7.080642 0.831502 11.395402 1.669209 2.907250 -80.261814 -36.696518 0.151240 25.567243 -76.900715 5.377283 -7.548029 -35.015800 7.602747 0.000000 -0.000000 -0.000000 -0.000000 -0.000000 -0.000000 0.000000 -0.000000 -0.000000 -14.327233 -0.744497 0.327448 77.763389 14.949129 15.468277 3.230388 77.885899 21.882221 -14.306761 11.398196 -0.046357 0.000000 -0.000000 0.000000 -0.000000 0.000000 -0.000000 -0.000000 -0.000000 -0.000000 
22.894895 14.671547 -21.257057 3.326645 -6.234316 15.113278 -4.707964 -19.422124 -11.998514 -1.830763 16.552017 17.923019 -17.049372 6.130427 28.363921 -17.209214 39.341572 33.332297 79.849874 -42.731036 -69.721439 -6.887304 4.913270 -9.427909 29.504585 2.030677 -38.865624 -12.492232 -23.820280 66.464730 -13.945483 11.738136 -21.883315 10.910644 -7.700759 -10.863851 11.394139 3.396657 25.495191 -2.553500 1.211583 -8.583731 -9.447883 1.909655 6.354008 -5.455144 2.250369 -19.100002 -5.535338 2.133493 7.091281 13.118034 -7.004861 0.455625 11.805703 1.858347 2.794144 -80.602418 -35.847767 0.269036 25.071585 -76.672663 5.733595 -7.953794 -34.902018 7.715284 0.000000 0.000000 0.000000 0.000000 0.000000 0.000000 0.000000 0.000000 0.000000 -13.781394 -0.727205 0.447517 77.614445 16.244981 14.685290 5.006534 77.433361 21.448931 -10.891452 9.935344 0.279639 0.000000 -0.000000 0.000000 -0.000000 -0.000000 0.000000 0.000000 0.000000 -0.000000 
22.946547 14.690916 -21.012763 2.665391 -6.280126 15.235395 -5.695482 -18.482976 -11.454373 0.499909 14.944282 14.984251 -17.776454 9.033331 33.024649 -15.867613 40.272370 33.620762 88.462948 -42.317199 -77.363605 -6.650696 4.743386 -9.464636 29.569941 2.387177 -37.333818 -8.747615 -22.818140 65.719726 -15.941234 7.340632 -22.716946 12.575287 -2.283031 -15.903458 11.778317 3.203907 25.345009 -2.569839 1.500381 -8.556899 -9.496889 2.105264 5.793301 -5.267060 2.274024 -18.425237 -5.609987 2.093442 6.966036 12.686768 -6.989067 0.756300 11.964006 1.527295 2.863719 -80.856113 -34.462281 0.202338 24.450939 -76.435738 6.823690 -6.025786 -35.603426 7.208346 -0.000000 0.000000 0.000000 -0.000000 0.000000 0.000000 -0.000000 0.000000 0.000000 -13.544177 -0.445054 0.820413 77.490884 16.983125 11.176215 17.388584 76.406187 30.577026 -1.872070 7.687581 0.924633 0.000000 -0.000000 0.000000 -0.000000 0.000000 0.000000 -0.000000 -0.000000 0.000000 
23.002102 14.712012 -20.767417 1.960848 -6.443348 15.408337 -6.881740 -17.442701 -10.643999 3.045135 13.836008 11.628854 -17.841337 11.664632 37.634377 -14.577097 41.401336 34.404753 79.806324 -35.999041 -71.557700 -6.259510 4.503848 -9.697265 30.094037 2.052374 -35.881703 -10.458843 -23.004593 65.257467 -15.594032 9.182034 -22.773782 12.789285 -4.394427 -14.997821 12.130516 2.839954 25.173171 -2.566537 1.699936 -8.553738 -9.908861 2.308131 5.905711 -4.736216 2.195694 -18.499054 -5.674861 1.925055 6.734083 11.317940 -6.982125 0.937396 12.302999 1.954257 2.893273 -81.111443 -33.699674 -0.056556 22.696756 -76.312139 7.935407 -8.414562 -35.603672 8.037145 0.000000 0.000000 0.000000 0.000000 0.000000 -0.000000 0.000000 0.000000 0.000000 -12.935502 -0.166258 0.923306 77.308374 18.300879 9.619691 21.188009 75.578415 32.218626 2.475823 5.219428 0.886735 0.000000 -0.000000 0.000000 -0.000000 -0.000000 -0.000000 0.000000 0.000000 -0.000000 
23.048348 14.735556 -20.525526 1.611464 -6.905925 15.279521 -7.237384 -16.719682 -10.537385 4.548296 13.631957 8.741109 -17.305189 14.091390 41.667979 -12.522938 41.452290 33.475780 77.318960 -32.277265 -70.487913 -6.333524 4.391809 -9.811643 30.321879 1.996727 -33.803955 -9.595939 -23.089670 64.001210 -16.765770 8.396176 -23.925712 12.333356 -2.057838 -15.722402 12.208625 2.503617 25.271212 -2.549658 1.923288 -8.479908 -10.096995 2.523787 6.444694 -4.585458 2.212039 -18.974772 -5.473724 1.881172 6.479461 11.246888 -6.991331 1.204336 12.408549 2.547369 2.542791 -81.679732 -32.719858 0.281197 22.135831 -76.015931 8.284662 -8.943402 -35.732808 8.252537 -0.000000 -0.000000 0.000000 -0.000000 -0.000000 -0.000000 -0.000000 -0.000000 0.000000 -12.926430 -0.329380 1.362595 77.119911 20.981556 11.146435 14.907415 75.873228 27.859752 -1.445001 8.454668 1.058454 0.000000 -0.000000 0.000000 0.000000 0.000000 -0.000000 0.000000 -0.000000 -0.000000 
23.085736 14.761246 -20.277778 1.343057 -7.103454 15.292326 -7.743648 -15.834437 -10.197624 5.990037 13.200050 5.338888 -16.009098 16.491824 45.762656 -10.644243 41.473107 32.746049 76.698533 -23.444600 -72.697339 -6.337718 4.113046 -9.907940 30.670582 1.565137 -31.988036 -9.067959 -22.870645 62.747290 -18.524322 7.759236 -25.076016 12.583401 -1.353547 -16.449620 12.244431 2.092647 25.135167 -2.492291 1.852592 -8.418240 -9.899340 2.504308 7.276554 -4.771762 2.306019 -19.751523 -5.274016 1.947569 6.185487 12.033969 -7.150556 1.400232 12.030298 3.456496 1.780326 -82.125211 -31.510926 0.777417 22.343824 -75.599601 7.943423 -9.760803 -35.324800 8.437861 -0.000000 0.000000 0.000000 -0.000000 -0.000000 -0.000000 -0.000000 0.000000 0.000000 -13.139278 -0.358120 1.789139 76.891186 24.043842 12.537337 9.223447 75.897732 26.132652 -11.850365 12.226473 0.265537 0.000000 -0.000000 0.000000 -0.000000 -0.000000 0.000000 0.000000 0.000000 0.000000 
23.129429 14.797928 -20.021021 1.148703 -7.821938 15.296204 -8.807435 -14.657638 -9.204814 7.606951 13.056876 1.215832 -14.230266 18.642133 49.877879 -8.874940 41.572108 32.288395 73.185619 -24.160863 -69.493277 -5.600557 3.178931 -10.751131 31.021937 0.348550 -29.414790 -13.382230 -23.314459 61.708526 -20.695354 12.362154 -26.161456 14.254633 -31.153716 -5.184371 12.086068 1.706616 25.110954 -2.500643 1.886525 -8.423655 -9.804739 2.598921 7.959020 -4.913548 2.317545 -20.433508 -5.114996 1.960166 5.844829 11.656061 -7.128548 0.926129 11.412610 4.525604 1.210616 -82.413651 -30.356192 1.166311 22.140529 -75.188777 8.204715 -9.644086 -35.614097 8.468852 0.000000 0.000000 0.000000 0.000000 0.000000 0.000000 0.000000 0.000000 0.000000 -13.192395 -0.135289 2.270834 76.584411 27.074722 13.046997 6.895180 75.619222 24.381655 -14.671942 12.384189 -0.076663 0.000000 -0.000000 0.000000 0.000000 -0.000000 -0.000000 0.000000 0.000000 -0.000000 
23.121171 14.944174 -19.736937 1.203729 -6.960344 16.793675 -11.063114 -13.218376 -7.509621 10.409107 8.333209 -4.295567 -15.081492 20.884852 52.239095 -6.190936 43.667680 32.872744 77.430531 -28.462246 -71.738817 -4.155403 3.705844 -10.155390 28.372345 0.470400 -29.472008 -7.485922 -22.185903 59.467451 -19.015888 7.319049 -26.390857 12.261574 0.077848 -16.882116 12.278697 0.943654 24.160294 -2.874157 1.460248 -9.176547 -10.091894 2.385331 6.928038 -4.542161 2.410081 -19.690420 -5.499701 1.960375 5.423271 10.529569 -6.879040 1.024587 9.930343 4.540932 0.803452 -81.094375 -27.926796 1.519310 23.257016 -74.586014 7.595834 -9.423448 -35.633041 8.396308 -0.000000 0.000000 0.000000 -0.000000 0.000000 -0.000000 0.000000 -0.000000 0.000000 -11.278107 1.828210 1.488064 75.939338 26.947397 13.096510 3.769541 74.892316 21.712637 -19.454099 9.255518 -0.571358 0.000000 -0.000000 0.000000 0.000000 0.000000 0.000000 0.000000 -0.000000 0.000000 
23.146547 15.013814 -19.492042 1.328047 -7.273542 16.818790 -11.328605 -12.770753 -7.459939 11.089916 9.453280 -7.913913 -12.674789 21.979934 55.646827 -4.772098 41.309859 29.881637 74.743954 -37.132321 -66.781992 -4.163758 3.662695 -10.366910 28.501432 -0.962848 -27.865468 -6.986367 -20.977275 58.053599 -18.910206 8.037374 -26.591924 12.879216 -0.659571 -17.235678 12.227591 0.687301 24.321987 -2.937323 1.568023 -9.232267 -10.724233 2.622438 6.694837 -4.084291 2.257773 -19.570484 -5.207125 1.746407 5.416259 9.777562 -7.023826 1.474780 10.259770 4.619222 0.345362 -81.528753 -25.927259 2.090062 23.961650 -74.623602 7.285974 -9.772872 -36.224058 8.665704 0.000000 0.000000 -0.000000 0.000000 0.000000 -0.000000 0.000000 0.000000 -0.000000 -11.025235 1.783067 2.120434 74.691022 29.154943 14.021969 4.076529 75.030204 20.886741 -18.919884 8.455863 -0.499719 0.000000 -0.000000 0.000000 -0.000000 0.000000 0.000000 -0.000000 0.000000 0.000000 
23.181532 15.059159 -19.239640 1.341209 -7.666350 16.708504 -11.478948 -12.276412 -7.379734 11.607747 10.235538 -11.212314 -10.085438 23.233571 58.768973 -3.427078 38.761577 26.734756 64.072434 -39.045935 -56.456544 -4.479211 3.411756 -10.546032 28.840002 -1.801216 -25.891146 -6.193514 -20.057988 56.583255 -19.810245 8.128240 -26.933201 13.585796 -1.249649 -17.788172 12.301490 0.490636 24.301357 -2.948480 1.763968 -9.074562 -10.987355 2.861804 6.630224 -4.037434 2.146971 -19.448478 -4.837387 1.631099 5.485266 9.597587 -7.200211 1.489841 10.423493 4.701258 0.001516 -82.194561 -24.036763 2.984509 25.545286 -74.517635 5.990086 -9.712578 -36.021163 8.593836 0.000000 0.000000 0.000000 -0.000000 0.000000 0.000000 0.000000 0.000000 0.000000 -11.427377 1.684309 2.601947 73.364862 31.207329 14.859406 4.378809 75.267694 21.050053 -16.757442 8.959620 -0.311043 0.000000 -0.000000 0.000000 -0.000000 0.000000 -0.000000 -0.000000 -0.000000 0.000000 
